<?xml version="1.0" encoding="UTF-8"?>
<!DOCTYPE svg PUBLIC "-//W3C//DTD SVG 1.1//EN" "http://www.w3.org/Graphics/SVG/1.1/DTD/svg11.dtd">
<svg xmlns="http://www.w3.org/2000/svg" version="1.1" width="100px" height="100px" style="shape-rendering:geometricPrecision; text-rendering:geometricPrecision; image-rendering:optimizeQuality; fill-rule:evenodd; clip-rule:evenodd" xmlns:xlink="http://www.w3.org/1999/xlink">
<g><path style="opacity:0.978" fill="#f4f4f4" d="M 39.5,-0.5 C 46.1667,-0.5 52.8333,-0.5 59.5,-0.5C 80.5,5.16667 93.8333,18.5 99.5,39.5C 99.5,46.1667 99.5,52.8333 99.5,59.5C 93.8333,80.5 80.5,93.8333 59.5,99.5C 52.8333,99.5 46.1667,99.5 39.5,99.5C 18.5,93.8333 5.16667,80.5 -0.5,59.5C -0.5,52.8333 -0.5,46.1667 -0.5,39.5C 5.16667,18.5 18.5,5.16667 39.5,-0.5 Z"/></g>
<g><path style="opacity:1" fill="#c3cfc5" d="M 42.5,23.5 C 42.5,23.8333 42.5,24.1667 42.5,24.5C 37.8215,24.3342 33.1548,24.5008 28.5,25C 25.8748,27.1962 24.8748,30.0295 25.5,33.5C 24.79,31.1073 24.1233,28.6073 23.5,26C 21.1902,25.5034 18.8568,25.3367 16.5,25.5C 16.5,23.8333 16.5,22.1667 16.5,20.5C 19.8499,20.335 23.1832,20.5017 26.5,21C 27.1667,21.6667 27.8333,22.3333 28.5,23C 33.1548,23.4992 37.8215,23.6658 42.5,23.5 Z"/></g>
<g><path style="opacity:1" fill="#5cc476" d="M 42.5,23.5 C 55.8375,23.3334 69.1708,23.5001 82.5,24C 84.3467,26.5791 84.8467,29.4124 84,32.5C 79.0852,39.328 74.4186,46.328 70,53.5C 69.0975,54.7014 67.9308,55.5348 66.5,56C 63.5184,56.498 60.5184,56.6646 57.5,56.5C 56.4077,53.9763 55.0743,51.643 53.5,49.5C 56.4294,47.2288 58.0961,44.2288 58.5,40.5C 58.5328,37.8984 57.5328,35.8984 55.5,34.5C 51.8767,30.9406 47.8767,30.6073 43.5,33.5C 43.6848,30.5415 43.3515,27.5415 42.5,24.5C 42.5,24.1667 42.5,23.8333 42.5,23.5 Z"/></g>
<g><path style="opacity:1" fill="#60ce7b" d="M 42.5,24.5 C 43.3515,27.5415 43.6848,30.5415 43.5,33.5C 40.1793,37.4403 39.6793,41.7736 42,46.5C 45.3273,49.1539 49.1606,50.1539 53.5,49.5C 55.0743,51.643 56.4077,53.9763 57.5,56.5C 48.8333,56.5 40.1667,56.5 31.5,56.5C 29.7521,52.9178 28.4188,49.2511 27.5,45.5C 27.4613,41.2671 26.7947,37.2671 25.5,33.5C 24.8748,30.0295 25.8748,27.1962 28.5,25C 33.1548,24.5008 37.8215,24.3342 42.5,24.5 Z"/></g>
<g><path style="opacity:1" fill="#f3f9f0" d="M 55.5,34.5 C 57.5328,35.8984 58.5328,37.8984 58.5,40.5C 58.0961,44.2288 56.4294,47.2288 53.5,49.5C 49.1606,50.1539 45.3273,49.1539 42,46.5C 39.6793,41.7736 40.1793,37.4403 43.5,33.5C 47.8767,30.6073 51.8767,30.9406 55.5,34.5 Z"/></g>
<g><path style="opacity:1" fill="#6dcd7b" d="M 55.5,34.5 C 53.893,37.692 54.2263,40.692 56.5,43.5C 54.9223,44.2978 53.2556,44.7978 51.5,45C 49.3049,49.696 47.8049,49.5293 47,44.5C 45.414,43.624 43.914,42.624 42.5,41.5C 45.2828,39.6054 46.7828,36.9388 47,33.5C 49.5417,35.8382 52.3751,36.1715 55.5,34.5 Z"/></g>
<g><path style="opacity:1" fill="#cacbca" d="M 27.5,45.5 C 28.4188,49.2511 29.7521,52.9178 31.5,56.5C 30.7109,56.7828 30.0442,57.2828 29.5,58C 30.5,59 31.5,60 32.5,61C 46.1667,61.3333 59.8333,61.6667 73.5,62C 75.5268,63.3957 75.8602,65.0624 74.5,67C 59.8333,67.6667 45.1667,67.6667 30.5,67C 27.2379,64.246 24.5712,61.0794 22.5,57.5C 23.389,55.1017 24.889,53.1017 27,51.5C 27.4955,49.5273 27.6621,47.5273 27.5,45.5 Z"/></g>
<g><path style="opacity:1" fill="#5a5a5a" d="M 36.5,69.5 C 43.1584,68.3445 45.1584,70.8445 42.5,77C 35.2545,78.274 33.2545,75.774 36.5,69.5 Z"/></g>
<g><path style="opacity:1" fill="#585858" d="M 62.5,69.5 C 67.9933,68.178 70.4933,70.178 70,75.5C 67.8471,77.4439 65.3471,77.9439 62.5,77C 59.9142,74.506 59.9142,72.006 62.5,69.5 Z"/></g>
</svg>
