<?xml version="1.0" encoding="UTF-8"?>
<!DOCTYPE svg PUBLIC "-//W3C//DTD SVG 1.1//EN" "http://www.w3.org/Graphics/SVG/1.1/DTD/svg11.dtd">
<svg xmlns="http://www.w3.org/2000/svg" version="1.1" width="50px" height="61px" style="shape-rendering:geometricPrecision; text-rendering:geometricPrecision; image-rendering:optimizeQuality; fill-rule:evenodd; clip-rule:evenodd" xmlns:xlink="http://www.w3.org/1999/xlink">
<g><path style="opacity:0.958" fill="#121212" d="M 48.5,14.5 C 46.8333,14.5 45.1667,14.5 43.5,14.5C 43.5,27.5 43.5,40.5 43.5,53.5C 43.1412,55.371 42.1412,56.871 40.5,58C 29.8333,58.6667 19.1667,58.6667 8.5,58C 6.85883,56.871 5.85883,55.371 5.5,53.5C 5.5,40.5 5.5,27.5 5.5,14.5C 4.16667,14.5 2.83333,14.5 1.5,14.5C 1.5,12.8333 1.5,11.1667 1.5,9.5C 5.5,9.5 9.5,9.5 13.5,9.5C 13.9424,2.75458 17.609,0.0879125 24.5,1.5C 31.391,0.0879125 35.0576,2.75458 35.5,9.5C 39.8333,9.5 44.1667,9.5 48.5,9.5C 48.5,11.1667 48.5,12.8333 48.5,14.5 Z M 19.5,6.5 C 22.8499,6.33499 26.1832,6.50166 29.5,7C 29.9574,7.41395 30.2907,7.91395 30.5,8.5C 26.5,9.83333 22.5,9.83333 18.5,8.5C 18.8627,7.81654 19.1961,7.14987 19.5,6.5 Z M 39.5,52.5 C 29.4176,52.8074 19.4176,52.4741 9.5,51.5C 10.8235,39.6666 10.8235,27.8333 9.5,16C 19.4944,15.5002 29.4944,15.3335 39.5,15.5C 39.5,27.8333 39.5,40.1667 39.5,52.5 Z"/></g>
<g><path style="opacity:0.986" fill="#030303" d="M 21.5,19.5 C 23.1667,19.5 24.8333,19.5 26.5,19.5C 26.5,29.5 26.5,39.5 26.5,49.5C 24.8333,49.5 23.1667,49.5 21.5,49.5C 21.5,39.5 21.5,29.5 21.5,19.5 Z"/></g>
<g><path style="opacity:0.988" fill="#060606" d="M 35.5,19.5 C 35.5,29.5 35.5,39.5 35.5,49.5C 34.1667,49.5 32.8333,49.5 31.5,49.5C 31.5,39.5 31.5,29.5 31.5,19.5C 32.8333,19.5 34.1667,19.5 35.5,19.5 Z"/></g>
<g><path style="opacity:0.412" fill="#404040" d="M 1.5,9.5 C 1.5,11.1667 1.5,12.8333 1.5,14.5C 2.83333,14.5 4.16667,14.5 5.5,14.5C 5.5,27.5 5.5,40.5 5.5,53.5C 4.50465,41.011 4.17132,28.3443 4.5,15.5C 3.16667,15.5 1.83333,15.5 0.5,15.5C 0.205283,13.2646 0.538616,11.2646 1.5,9.5 Z"/></g>
<g><path style="opacity:0.473" fill="#353535" d="M 35.5,19.5 C 34.1667,19.5 32.8333,19.5 31.5,19.5C 31.5,29.5 31.5,39.5 31.5,49.5C 30.5058,39.3468 30.1724,29.0135 30.5,18.5C 32.4147,18.2155 34.0813,18.5489 35.5,19.5 Z"/></g>
<g><path style="opacity:0.517" fill="#505050" d="M 48.5,14.5 C 47.4324,15.4345 46.099,15.7678 44.5,15.5C 44.8287,28.3443 44.4954,41.011 43.5,53.5C 43.5,40.5 43.5,27.5 43.5,14.5C 45.1667,14.5 46.8333,14.5 48.5,14.5 Z"/></g>
<g><path style="opacity:0.561" fill="#3c3c3c" d="M 17.5,49.5 C 17.5,39.5 17.5,29.5 17.5,19.5C 16.5,19.5 15.5,19.5 14.5,19.5C 14.5,29.5 14.5,39.5 14.5,49.5C 13.5058,39.3468 13.1724,29.0135 13.5,18.5C 15.1667,18.5 16.8333,18.5 18.5,18.5C 18.8276,29.0135 18.4942,39.3468 17.5,49.5 Z"/></g>
<g><path style="opacity:1" fill="#000000" d="M 17.5,49.5 C 16.5,49.5 15.5,49.5 14.5,49.5C 14.5,39.5 14.5,29.5 14.5,19.5C 15.5,19.5 16.5,19.5 17.5,19.5C 17.5,29.5 17.5,39.5 17.5,49.5 Z"/></g>
<g><path style="opacity:0.243" fill="#3e3e3e" d="M 21.5,19.5 C 23.2646,18.5386 25.2646,18.2053 27.5,18.5C 27.8276,29.0135 27.4942,39.3468 26.5,49.5C 26.5,39.5 26.5,29.5 26.5,19.5C 24.8333,19.5 23.1667,19.5 21.5,19.5 Z"/></g>
<g><path style="opacity:0.078" fill="#5a5a5a" d="M 9.5,51.5 C 19.4176,52.4741 29.4176,52.8074 39.5,52.5C 34.6782,53.166 29.6782,53.4993 24.5,53.5C 19.1194,53.4942 14.1194,52.8275 9.5,51.5 Z"/></g>
</svg>
